<?xml version="1.0" encoding="UTF-8" standalone="no"?><!DOCTYPE svg PUBLIC "-//W3C//DTD SVG 1.1//EN" "http://www.w3.org/Graphics/SVG/1.1/DTD/svg11.dtd"><svg width="100%" height="100%" viewBox="0 0 128 186" version="1.1" xmlns="http://www.w3.org/2000/svg" xmlns:xlink="http://www.w3.org/1999/xlink" xml:space="preserve" xmlns:serif="http://www.serif.com/" style="fill-rule:evenodd;clip-rule:evenodd;stroke-linejoin:round;stroke-miterlimit:2;"><rect id="Logo_image" x="-0" y="0" width="128" height="186" style="fill:none;"/><g><path d="M116.342,68.443c0,-10.699 -1.645,-19.758 -4.937,-27.177c-3.291,-7.419 -7.52,-13.45 -12.685,-18.093c-5.165,-4.643 -10.887,-8 -17.166,-10.069c-6.279,-2.069 -12.406,-3.104 -18.382,-3.104c-8.102,-0 -15.445,1.413 -22.028,4.239c-6.583,2.826 -12.204,6.662 -16.862,11.507c-4.558,4.845 -8.077,10.497 -10.559,16.957c-2.481,6.46 -3.722,13.324 -3.722,20.592l-0,31.795l4.101,-0l0.001,-10.296l98.137,0.001l0,10.296l4.102,0l0,-26.648Zm-102.239,12.112l-0,-17.715c-0,-6.561 1.139,-12.793 3.418,-18.698c2.279,-5.905 5.545,-11.129 9.799,-15.671c4.254,-4.441 9.419,-7.949 15.495,-10.522c6.077,-2.574 12.863,-3.861 20.357,-3.861c5.874,0 11.723,1.009 17.546,3.028c5.824,2.019 11.014,5.148 15.572,9.388c4.76,4.34 8.608,9.816 11.545,16.427c2.937,6.612 4.406,14.51 4.405,23.696l0,13.929l-98.137,-0.001Z" style="fill:#8ad7bc;fill-rule:nonzero;stroke:#8ad7bc;stroke-width:1px;"/><path d="M116.342,94.751l-23.395,-0l-0,4.088l19.293,-0l-0,55.869l-98.138,-0.001l0,-12.567l-4.102,0l-0,27.859l4.102,-0l-0,-11.053l98.138,0.001l-0.001,11.053l4.102,0l0.001,-75.249Z" style="fill:#273773;fill-rule:nonzero;stroke:#273773;stroke-width:1px;"/></g></svg>